<?xml version="1.0" encoding="iso-8859-1"?>
<!-- Generator: Adobe Illustrator 22.1.0, SVG Export Plug-In . SVG Version: 6.00 Build 0)  -->
<svg xmlns="http://www.w3.org/2000/svg" xmlns:xlink="http://www.w3.org/1999/xlink" version="1.1" id="Layer_1" x="0px" y="0px" viewBox="0 0 48 48" style="enable-background:new 0 0 48 48;" xml:space="preserve">
<path style="fill:#CFD8DC;" d="M42,38c0,2.209-1.791,4-4,4H10c-2.209,0-4-1.791-4-4V10c0-2.209,1.791-4,4-4h28c2.209,0,4,1.791,4,4  V38z"/>
<g>
	<rect x="11" y="18" style="fill:#90A4AE;" width="5" height="5"/>
	<rect x="18" y="18" style="fill:#90A4AE;" width="5" height="5"/>
	<rect x="25" y="18" style="fill:#90A4AE;" width="5" height="5"/>
	<rect x="32" y="18" style="fill:#90A4AE;" width="5" height="5"/>
	<rect x="32" y="25" style="fill:#90A4AE;" width="5" height="5"/>
	<rect x="11" y="25" style="fill:#90A4AE;" width="5" height="5"/>
	<rect x="11" y="32" style="fill:#90A4AE;" width="5" height="5"/>
	<rect x="18" y="25" style="fill:#90A4AE;" width="5" height="5"/>
	<rect x="25" y="25" style="fill:#90A4AE;" width="5" height="5"/>
	<rect x="18" y="32" style="fill:#90A4AE;" width="5" height="5"/>
	<rect x="25" y="32" style="fill:#90A4AE;" width="5" height="5"/>
	<rect x="32" y="32" style="fill:#90A4AE;" width="5" height="5"/>
</g>
<g>
	<rect x="11" y="11" style="fill:#F44336;" width="5" height="5"/>
	<rect x="18" y="11" style="fill:#F44336;" width="5" height="5"/>
	<rect x="25" y="11" style="fill:#F44336;" width="5" height="5"/>
	<rect x="32" y="11" style="fill:#F44336;" width="5" height="5"/>
</g>
<g>
	<path style="fill:#ECEFF1;" d="M38,26c-0.338,0-0.669,0.023-1,0.05V30h-5v-2.382c-1.817,1.052-3.329,2.565-4.382,4.382H30v5h-3.95   C26.023,37.331,26,37.662,26,38c0,1.405,0.254,2.747,0.697,4H38c2.209,0,4-1.791,4-4V26.697C40.747,26.254,39.405,26,38,26z"/>
	<path style="fill:#CFD8DC;" d="M37,30v-3.95c-1.812,0.15-3.506,0.703-5,1.568V30H37z"/>
	<path style="fill:#CFD8DC;" d="M30,32h-2.382c-0.865,1.494-1.418,3.188-1.568,5H30V32z"/>
	<path style="fill:#F44336;" d="M48,38c0,5.5-4.5,10-10,10s-10-4.5-10-10s4.5-10,10-10S48,32.5,48,38"/>
	<path style="fill:#EEEEEE;" d="M45,38c0,3.9-3.1,7-7,7s-7-3.1-7-7s3.1-7,7-7S45,34.1,45,38"/>
	<path d="M42.4,41.1l-2.9-2.9c0-0.1,0-0.1,0-0.2c0-0.4-0.2-0.8-0.5-1.1V33h-2v3.9c-0.3,0.3-0.5,0.7-0.5,1.1c0,0.8,0.7,1.5,1.5,1.5   h0.1l2.9,2.9L42.4,41.1z"/>
</g>
</svg>
