<svg class="icon" width="151px" height="112px" xmlns="http://www.w3.org/2000/svg" style="animation-delay: 0s; animation-direction: normal; animation-duration: 0s; animation-fill-mode: none; animation-iteration-count: 1; animation-name: none; animation-play-state: running; animation-timing-function: ease; background-attachment: scroll; background-blend-mode: normal; background-clip: border-box; background-color: rgba(0, 0, 0, 0); background-image: none; background-origin: padding-box; background-position: 0% 0%; background-repeat: repeat; background-size: auto; border-bottom-color: rgb(113, 128, 150); border-bottom-left-radius: 0px; border-bottom-right-radius: 0px; border-bottom-style: none; border-bottom-width: 0px; border-collapse: separate; border-image-outset: 0; border-image-repeat: stretch; border-image-slice: 100%; border-image-source: none; border-image-width: 1; border-left-color: rgb(113, 128, 150); border-left-style: none; border-left-width: 0px; border-right-color: rgb(113, 128, 150); border-right-style: none; border-right-width: 0px; border-top-color: rgb(113, 128, 150); border-top-left-radius: 0px; border-top-right-radius: 0px; border-top-style: none; border-top-width: 0px; bottom: auto; box-shadow: none; box-sizing: border-box; break-after: auto; break-before: auto; break-inside: auto; caption-side: top; clear: none; clip: auto; color: rgb(113, 128, 150); content: normal; cursor: auto; direction: ltr; display: inline; empty-cells: show; float: none; font-family: &quot;Nunito Sans&quot;, sans-serif; font-kerning: auto; font-optical-sizing: auto; font-size: 27.4286px; font-stretch: 100%; font-style: normal; font-variant: normal; font-variant-ligatures: normal; font-variant-caps: normal; font-variant-numeric: normal; font-variant-east-asian: normal; font-weight: 400; height: 48px; image-orientation: from-image; image-rendering: auto; isolation: auto; justify-items: normal; justify-self: auto; left: auto; letter-spacing: normal; line-height: 46.6287px; list-style-image: none; list-style-position: outside; list-style-type: disc; margin-bottom: 0px; margin-left: 0px; margin-right: 0px; margin-top: 0px; max-height: none; max-width: 100%; min-height: 0px; min-width: 0px; mix-blend-mode: normal; object-fit: fill; object-position: 50% 50%; offset-distance: 0px; offset-path: none; offset-rotate: auto 0deg; opacity: 1; orphans: 2; outline-color: rgb(113, 128, 150); outline-offset: 0px; outline-style: none; outline-width: 0px; overflow-anchor: auto; overflow-wrap: normal; overflow-x: hidden; overflow-y: hidden; padding-bottom: 0px; padding-left: 0px; padding-right: 0px; padding-top: 0px; pointer-events: auto; position: static; resize: none; right: auto; scroll-behavior: auto; speak: normal; table-layout: auto; tab-size: 8; text-align: left; text-align-last: auto; text-decoration: none solid rgb(113, 128, 150); text-decoration-line: none; text-decoration-style: solid; text-decoration-color: rgb(113, 128, 150); text-decoration-skip-ink: auto; text-underline-position: auto; text-indent: 0px; text-rendering: auto; text-shadow: none; text-size-adjust: 100%; text-overflow: clip; text-transform: none; top: auto; touch-action: auto; transition-delay: 0s; transition-duration: 0s; transition-property: all; transition-timing-function: ease; unicode-bidi: normal; vertical-align: middle; visibility: visible; white-space: normal; widows: 2; width: 48px; will-change: auto; word-break: normal; word-spacing: 0px; z-index: auto; zoom: 1; -webkit-appearance: none; backface-visibility: visible; -webkit-border-horizontal-spacing: 0px; -webkit-border-image: none; -webkit-border-vertical-spacing: 0px; -webkit-box-align: stretch; -webkit-box-decoration-break: slice; -webkit-box-direction: normal; -webkit-box-flex: 0; -webkit-box-ordinal-group: 1; -webkit-box-orient: horizontal; -webkit-box-pack: start; -webkit-box-reflect: none; column-count: auto; column-gap: normal; column-rule-color: rgb(113, 128, 150); column-rule-style: none; column-rule-width: 0px; column-span: none; column-width: auto; backdrop-filter: none; align-content: normal; align-items: normal; align-self: auto; flex-basis: auto; flex-grow: 0; flex-shrink: 1; flex-direction: row; flex-wrap: nowrap; justify-content: normal; -webkit-font-smoothing: auto; grid-auto-columns: auto; grid-auto-flow: row; grid-auto-rows: auto; grid-column-end: auto; grid-column-start: auto; grid-template-areas: none; grid-template-columns: none; grid-template-rows: none; grid-row-end: auto; grid-row-start: auto; row-gap: normal; -webkit-highlight: none; hyphens: manual; -webkit-hyphenate-character: auto; -webkit-line-break: auto; -webkit-line-clamp: none; -webkit-locale: &quot;en&quot;; -webkit-mask-box-image: none; -webkit-mask-box-image-outset: 0; -webkit-mask-box-image-repeat: stretch; -webkit-mask-box-image-slice: 0 fill; -webkit-mask-box-image-source: none; -webkit-mask-box-image-width: auto; -webkit-mask-clip: border-box; -webkit-mask-composite: source-over; -webkit-mask-image: none; -webkit-mask-origin: border-box; -webkit-mask-position: 0% 0%; -webkit-mask-repeat: repeat; -webkit-mask-size: auto; order: 0; perspective: none; perspective-origin: 24px 24px; -webkit-print-color-adjust: economy; -webkit-rtl-ordering: logical; shape-outside: none; shape-image-threshold: 0; shape-margin: 0px; -webkit-tap-highlight-color: rgba(31, 45, 61, 0); -webkit-text-combine: none; -webkit-text-decorations-in-effect: none; -webkit-text-emphasis-color: rgb(113, 128, 150); -webkit-text-emphasis-position: over right; -webkit-text-emphasis-style: none; -webkit-text-fill-color: rgb(113, 128, 150); -webkit-text-orientation: vertical-right; -webkit-text-security: none; -webkit-text-stroke-color: rgb(113, 128, 150); -webkit-text-stroke-width: 0px; transform: none; transform-origin: 24px 24px; transform-style: flat; -webkit-user-drag: auto; -webkit-user-modify: read-only; user-select: auto; -webkit-writing-mode: horizontal-tb; -webkit-app-region: none; buffered-rendering: auto; clip-path: none; clip-rule: nonzero; mask: none; filter: none; flood-color: rgb(0, 0, 0); flood-opacity: 1; lighting-color: rgb(255, 255, 255); stop-color: rgb(0, 0, 0); stop-opacity: 1; color-interpolation: srgb; color-interpolation-filters: linearrgb; color-rendering: auto; fill: rgb(0, 0, 0); fill-opacity: 1; fill-rule: nonzero; marker-end: none; marker-mid: none; marker-start: none; mask-type: luminance; shape-rendering: auto; stroke: none; stroke-dasharray: none; stroke-dashoffset: 0px; stroke-linecap: butt; stroke-linejoin: miter; stroke-miterlimit: 4; stroke-opacity: 1; stroke-width: 1px; alignment-baseline: auto; baseline-shift: 0px; dominant-baseline: auto; text-anchor: start; writing-mode: horizontal-tb; vector-effect: none; paint-order: normal; d: none; cx: 0px; cy: 0px; x: 0px; y: 0px; r: 0px; rx: auto; ry: auto; caret-color: rgb(113, 128, 150); line-break: auto;" version="1.1" xmlns:xlink="http://www.w3.org/1999/xlink"><style  type="text/css">*, ::after, ::before { box-sizing: border-box; }
svg { overflow: hidden; vertical-align: middle; }
.img-fluid { max-width: 100%; height: auto; }
svg { vertical-align: middle; overflow: hidden; }
.icon i, .icon svg { font-size: 1.71429rem; }
.icon:not(.icon-shape) svg { width: 3rem; height: 3rem; }</style><svg xmlns:xlink="http://www.w3.org/1999/xlink" viewBox="0 0 151 112" version="1.1" class="injected-svg svg-inject img-fluid">
    <!-- Generator: Sketch 51.2 (57519) - http://www.bohemiancoding.com/sketch -->
    <title>Book</title>
    <desc>Created with Sketch.</desc>
    <defs/>
    <g id="Page-1" stroke="none" stroke-width="1" fill="none" fill-rule="evenodd">
        <g id="Book">
            <path d="M150.4,10.3 L150.4,107.6 C150.4,109.4 149,110.8 147.2,110.8 L3.9,110.8 C2.1,110.8 0.7,109.4 0.7,107.6 L0.7,10.3 C0.7,8.5 2.1,7.1 3.9,7.1 L147.2,7.1 C148.9,7.1 150.4,8.6 150.4,10.3 Z" id="Shape" fill="#2767F4" fill-rule="nonzero"/>
            <g id="Group" transform="translate(4.000000, 9.000000)" fill="#4988FD" fill-rule="nonzero">
                <path d="M71.2,17.4 L71.2,101.9 L66.2,101.9 C62.9,98.7 58.1,96.7 52.9,96.7 L4.8,96.7 C2.2,96.7 0.2,94.8 0.2,92.5 L0.2,5 C0.2,3.6 1,2.3 2.1,1.6 C2.9,1.1 3.8,0.8 4.8,0.8 L52.9,0.8 C63,0.7 71.2,8.2 71.2,17.4 Z" id="Shape"/>
                <path d="M143.1,5 L143.1,92.5 C143.1,94.8 141,96.7 138.5,96.7 L90.4,96.7 C85.2,96.7 80.4,98.7 77.1,101.9 L72.1,101.9 L72.1,17.4 C72.1,8.2 80.3,0.7 90.4,0.7 L138.5,0.7 C139.5,0.7 140.4,1 141.2,1.5 C142.3,2.3 143.1,3.5 143.1,5 Z" id="Shape"/>
            </g>
            <path d="M75.9,18 L75.9,111.8 L75.3,111.8 C73.3,104.4 66.2,99 57.7,99 L9.9,99 C7.4,99 5.3,97.1 5.3,94.7 L5.3,5.3 C5.3,2.9 7.4,1 9.9,1 L57.7,1 C62.6,1 67.1,2.8 70.3,5.8 C73.8,8.8 75.9,13.2 75.9,18 Z" id="Shape" fill="#DFECFD" fill-rule="nonzero"/>
            <path d="M146.4,5.2 L146.4,94.6 C146.4,97 144.3,98.9 141.8,98.9 L94,98.9 C85.5,98.9 78.4,104.4 76.4,111.7 L75.8,111.7 L75.8,18 C75.8,13.2 77.9,8.8 81.4,5.7 C84.7,2.7 89.1,0.9 94,0.9 L141.8,0.9 C144.3,0.9 146.4,2.9 146.4,5.2 Z" id="Shape" fill="#DFECFD" fill-rule="nonzero"/>
            <g id="Group" transform="translate(17.000000, 20.000000)" fill="#C5DCFA" fill-rule="nonzero">
                <path d="M26.7,63.1 L11.8,63.1 C10.9,63.1 10.1,62.4 10.1,61.4 C10.1,60.4 10.8,59.7 11.8,59.7 L26.7,59.7 C27.6,59.7 28.4,60.4 28.4,61.4 C28.4,62.4 27.6,63.1 26.7,63.1 Z" id="Shape"/>
                <path d="M4.5,63.1 L1.9,63.1 C1,63.1 0.2,62.4 0.2,61.4 C0.2,60.4 0.9,59.7 1.9,59.7 L4.5,59.7 C5.4,59.7 6.2,60.4 6.2,61.4 C6.2,62.4 5.4,63.1 4.5,63.1 Z" id="Shape"/>
                <path d="M44.8,51.3 L30,51.3 C29.1,51.3 28.3,50.6 28.3,49.6 C28.3,48.6 29,47.9 30,47.9 L44.8,47.9 C45.7,47.9 46.5,48.6 46.5,49.6 C46.5,50.6 45.7,51.3 44.8,51.3 Z" id="Shape"/>
                <path d="M23.8,51.3 L2.2,51.3 C1.3,51.3 0.5,50.6 0.5,49.6 C0.5,48.6 1.2,47.9 2.2,47.9 L23.8,47.9 C24.7,47.9 25.5,48.6 25.5,49.6 C25.5,50.6 24.7,51.3 23.8,51.3 Z" id="Shape"/>
                <path d="M34.1,39.5 L2.6,39.5 C1.7,39.5 0.9,38.8 0.9,37.8 C0.9,36.9 1.6,36.1 2.6,36.1 L34.1,36.1 C35,36.1 35.8,36.8 35.8,37.8 C35.7,38.7 35,39.5 34.1,39.5 Z" id="Shape"/>
                <path d="M34.1,16 L2.6,16 C1.7,16 0.9,15.3 0.9,14.3 C0.9,13.3 1.6,12.6 2.6,12.6 L34.1,12.6 C35,12.6 35.8,13.3 35.8,14.3 C35.8,15.3 35,16 34.1,16 Z" id="Shape"/>
                <path d="M45.4,27.6 L25,27.6 C24.1,27.6 23.3,26.9 23.3,25.9 C23.3,25 24,24.2 25,24.2 L45.3,24.2 C46.2,24.2 47,24.9 47,25.9 C47,26.9 46.3,27.6 45.4,27.6 Z" id="Shape"/>
                <path d="M18.5,27.6 L2.8,27.6 C1.9,27.6 1.1,26.9 1.1,25.9 C1.1,25 1.8,24.2 2.8,24.2 L18.5,24.2 C19.4,24.2 20.2,24.9 20.2,25.9 C20.1,26.9 19.4,27.6 18.5,27.6 Z" id="Shape"/>
                <path d="M45.4,3.4 L35.7,3.4 C34.8,3.4 34,2.7 34,1.7 C34,0.7 34.7,0 35.7,0 L45.4,0 C46.3,0 47.1,0.7 47.1,1.7 C47.1,2.7 46.3,3.4 45.4,3.4 Z" id="Shape"/>
                <path d="M27.9,3.4 L2.8,3.4 C1.9,3.4 1.1,2.7 1.1,1.7 C1.1,0.7 1.8,0 2.8,0 L27.9,0 C28.8,0 29.6,0.7 29.6,1.7 C29.6,2.7 28.8,3.4 27.9,3.4 Z" id="Shape"/>
            </g>
            <g id="Group" transform="translate(89.000000, 18.000000)">
                <path d="M25.2,50.3 L11,50.3 C10.1,50.3 9.3,49.6 9.3,48.6 C9.3,47.6 10,46.9 11,46.9 L25.2,46.9 C26.1,46.9 26.9,47.6 26.9,48.6 C26.9,49.6 26.1,50.3 25.2,50.3 Z" id="Shape" fill="#C5DCFA" fill-rule="nonzero"/>
                <path d="M1.5,48.6 L4,48.6" id="Shape" stroke="#91C2FF" stroke-width="3.2" stroke-linecap="round" stroke-linejoin="round"/>
                <path d="M42.5,38.6 L28.4,38.6 C27.5,38.6 26.7,37.9 26.7,36.9 C26.7,35.9 27.4,35.2 28.4,35.2 L42.5,35.2 C43.4,35.2 44.2,35.9 44.2,36.9 C44.2,37.9 43.4,38.6 42.5,38.6 Z" id="Shape" fill="#C5DCFA" fill-rule="nonzero"/>
                <path d="M22.4,38.6 L1.8,38.6 C0.9,38.6 0.1,37.9 0.1,36.9 C0.1,35.9 0.8,35.2 1.8,35.2 L22.4,35.2 C23.3,35.2 24.1,35.9 24.1,36.9 C24.1,37.9 23.3,38.6 22.4,38.6 Z" id="Shape" fill="#C5DCFA" fill-rule="nonzero"/>
                <path d="M32.2,27 L2.1,27 C1.2,27 0.4,26.3 0.4,25.3 C0.4,24.3 1.1,23.6 2.1,23.6 L32.2,23.6 C33.1,23.6 33.9,24.3 33.9,25.3 C33.9,26.3 33.1,27 32.2,27 Z" id="Shape" fill="#C5DCFA" fill-rule="nonzero"/>
                <path d="M43,15.4 L23.6,15.4 C22.7,15.4 21.9,14.7 21.9,13.7 C21.9,12.7 22.6,12 23.6,12 L43,12 C43.9,12 44.7,12.7 44.7,13.7 C44.7,14.7 44,15.4 43,15.4 Z" id="Shape" fill="#C5DCFA" fill-rule="nonzero"/>
                <path d="M17.4,15.4 L2.4,15.4 C1.5,15.4 0.7,14.7 0.7,13.7 C0.7,12.7 1.4,12 2.4,12 L17.4,12 C18.3,12 19.1,12.7 19.1,13.7 C19.1,14.7 18.3,15.4 17.4,15.4 Z" id="Shape" fill="#C5DCFA" fill-rule="nonzero"/>
                <path d="M43,4.2 L33.7,4.2 C32.8,4.2 32,3.5 32,2.5 C32,1.5 32.7,0.8 33.7,0.8 L43,0.8 C43.9,0.8 44.7,1.5 44.7,2.5 C44.7,3.5 44,4.2 43,4.2 Z" id="Shape" fill="#C5DCFA" fill-rule="nonzero"/>
                <path d="M26.4,4.2 L2.4,4.2 C1.5,4.2 0.7,3.5 0.7,2.5 C0.7,1.5 1.4,0.8 2.4,0.8 L26.4,0.8 C27.3,0.8 28.1,1.5 28.1,2.5 C28.1,3.5 27.3,4.2 26.4,4.2 Z" id="Shape" fill="#C5DCFA" fill-rule="nonzero"/>
            </g>
            <path d="M95.6,105.1 L93,102.3 L90,105.3 C89.6,105.7 88.9,105.4 88.9,104.9 L88.9,1.6 C88.9,0.9 89.5,0.3 90.2,0.3 L96.6,0.3 L96.6,104.8 C96.7,105.3 95.9,105.5 95.6,105.1 Z" id="Shape" fill="#C5DCFA" fill-rule="nonzero"/>
        </g>
    </g>
</svg></svg>