<?xml version="1.0" encoding="iso-8859-1"?>
<!-- Generator: Adobe Illustrator 19.0.0, SVG Export Plug-In . SVG Version: 6.00 Build 0)  -->
<svg xmlns="http://www.w3.org/2000/svg" xmlns:xlink="http://www.w3.org/1999/xlink" version="1.1" id="Capa_1" x="0px" y="0px" viewBox="0 0 512 512" style="enable-background:new 0 0 512 512;" xml:space="preserve">
<rect y="0.007" style="fill:#F0F0F0;" width="512" height="511.989"/>
<rect y="0.001" style="fill:#D80027;" width="512" height="170.663"/>
<rect y="341.336" style="fill:#6DA544;" width="512" height="170.663"/>
<g>
	<polygon style="fill:#FFDA44;" points="213.259,320.926 298.741,320.926 298.741,284.596 281.645,293.144 256,267.5    230.355,293.144 213.259,284.596  "/>
	<polygon style="fill:#FFDA44;" points="164.351,278.185 168.33,290.43 181.203,290.43 170.789,297.997 174.767,310.241    164.351,302.673 153.936,310.241 157.914,297.997 147.499,290.43 160.373,290.43  "/>
	<polygon style="fill:#FFDA44;" points="176.687,235.445 180.665,247.689 193.539,247.689 183.123,255.256 187.101,267.5    176.687,259.934 166.271,267.5 170.249,255.256 159.834,247.689 172.708,247.689  "/>
	<polygon style="fill:#FFDA44;" points="211.949,203.39 215.927,215.633 228.802,215.633 218.386,223.201 222.364,235.445    211.949,227.878 201.533,235.445 205.511,223.201 195.096,215.633 207.97,215.633  "/>
	<polygon style="fill:#FFDA44;" points="347.648,278.185 343.67,290.43 330.795,290.43 341.211,297.997 337.233,310.241    347.648,302.673 358.064,310.241 354.086,297.997 364.501,290.43 351.627,290.43  "/>
	<polygon style="fill:#FFDA44;" points="335.313,235.445 331.335,247.689 318.461,247.689 328.877,255.256 324.898,267.5    335.313,259.934 345.729,267.5 341.751,255.256 352.166,247.689 339.292,247.689  "/>
	<polygon style="fill:#FFDA44;" points="300.051,203.39 296.072,215.633 283.198,215.633 293.614,223.201 289.636,235.445    300.051,227.878 310.467,235.445 306.489,223.201 316.903,215.633 304.03,215.633  "/>
	<polygon style="fill:#FFDA44;" points="256,187.361 259.979,199.605 272.853,199.605 262.437,207.172 266.416,219.416 256,211.849    245.584,219.416 249.563,207.172 239.147,199.605 252.021,199.605  "/>
</g>
<g>
</g>
<g>
</g>
<g>
</g>
<g>
</g>
<g>
</g>
<g>
</g>
<g>
</g>
<g>
</g>
<g>
</g>
<g>
</g>
<g>
</g>
<g>
</g>
<g>
</g>
<g>
</g>
<g>
</g>
</svg>
