<?xml version="1.0" encoding="UTF-8"?>
<svg width="64px" height="64px" viewBox="0 0 64 64" version="1.1" xmlns="http://www.w3.org/2000/svg" xmlns:xlink="http://www.w3.org/1999/xlink">
    <!-- Generator: Sketch 59.1 (86144) - https://sketch.com -->
    <title>arab-league</title>
    <desc>Created with Sketch.</desc>
    <g id="Page-1" stroke="none" stroke-width="1" fill="none" fill-rule="evenodd">
        <g id="Trycka_rollup_85x200cm" transform="translate(-2230.000000, -1112.000000)" fill-rule="nonzero">
            <g id="arab-league" transform="translate(2230.000000, 1112.000000)">
                <circle id="Oval" fill="#496E2D" cx="32" cy="32" r="32"></circle>
                <g id="Group" transform="translate(13.750000, 19.125000)">
                    <path d="M18.25,19.218875 C12.92175,19.218875 8.4705,15.474125 7.378375,10.473375 C7.210625,11.24225 7.119625,12.039375 7.119625,12.858625 C7.119625,19.006 12.10275,23.989 18.25,23.989 C24.39725,23.989 29.380375,19.005875 29.380375,12.858625 C29.380375,12.039375 29.289375,11.24225 29.121625,10.473375 C28.0295,15.47425 23.57825,19.218875 18.25,19.218875 Z" id="Path" fill="#FFDA44"></path>
                    <path d="M36.244375,12.875 C36.244375,7.9275 34.257125,3.444875 31.038375,0.179375 L28.087,3.13075 C30.5505,5.64075 32.0705,9.08025 32.0705,12.875 C32.0705,20.559 25.841375,26.788 18.1575,26.788 C10.473375,26.788 4.2445,20.559 4.2445,12.875 C4.2445,9.032875 5.801625,5.554625 8.3195,3.037 L5.368125,0.085625 C2.095,3.35875 0.070625,7.8805 0.070625,12.875 C0.070625,21.151875 5.63025,28.13025 13.218875,30.279375 C12.386875,31.859875 12.513625,33.84975 13.702125,35.332875 C15.263125,34.081875 16.87925,32.786625 18.25025,31.688125 C19.62125,32.78675 21.2375,34.081875 22.798375,35.332875 C23.998625,33.835 24.11675,31.819875 23.257125,30.23175 C30.76275,28.029875 36.244375,21.093125 36.244375,12.875 Z" id="Path" fill="#F0F0F0"></path>
                    <path d="M23.358625,23.549 C18.364125,23.549 14.315125,19.5 14.315125,14.5055 C14.315125,9.511 18.364125,5.462 23.358625,5.462 C24.915875,5.462 26.381125,5.855875 27.660375,6.549 C25.6535,4.58625 22.908875,3.375 19.880375,3.375 C13.733125,3.375 8.75,8.35825 8.75,14.505375 C8.75,20.6525 13.73325,25.63575 19.880375,25.63575 C22.909125,25.63575 25.653625,24.424375 27.660375,22.46175 C26.381125,23.155125 24.915875,23.549 23.358625,23.549 Z" id="Path" fill="#F0F0F0" transform="translate(18.205188, 14.505375) rotate(-90.000000) translate(-18.205188, -14.505375) "></path>
                </g>
            </g>
        </g>
    </g>
</svg>