<?xml version="1.0" encoding="iso-8859-1"?>
<!-- Generator: Adobe Illustrator 19.0.0, SVG Export Plug-In . SVG Version: 6.00 Build 0)  -->
<svg xmlns="http://www.w3.org/2000/svg" xmlns:xlink="http://www.w3.org/1999/xlink" version="1.1" id="Capa_1" x="0px" y="0px" viewBox="0 0 512 512" style="enable-background:new 0 0 512 512;" xml:space="preserve">
<rect style="fill:#F0F0F0;" width="512" height="512"/>
<g>
	<path style="fill:#0052B4;" d="M352,200.575h-64.001L256,145.15l-31.998,55.425H160L192.002,256L160,311.425h64.002L256,366.85   l31.999-55.425H352L319.998,256L352,200.575z M295.314,256l-19.656,34.048h-39.314L216.686,256l19.657-34.048h39.314L295.314,256z    M256,187.903l7.316,12.672h-14.63L256,187.903z M197.028,221.952h14.632l-7.316,12.672L197.028,221.952z M197.028,290.048   l7.317-12.672l7.316,12.672H197.028z M256,324.097l-7.315-12.672h14.63L256,324.097z M314.972,290.048H300.34l7.317-12.672   L314.972,290.048z M300.34,221.952h14.632l-7.316,12.672L300.34,221.952z"/>
	<rect y="32" style="fill:#0052B4;" width="512" height="64"/>
	<rect y="416" style="fill:#0052B4;" width="512" height="64"/>
</g>
<g>
</g>
<g>
</g>
<g>
</g>
<g>
</g>
<g>
</g>
<g>
</g>
<g>
</g>
<g>
</g>
<g>
</g>
<g>
</g>
<g>
</g>
<g>
</g>
<g>
</g>
<g>
</g>
<g>
</g>
</svg>
